<svg id="svg" version="1.1" width="400" height="400" viewBox="0 0 400 400" xmlns="http://www.w3.org/2000/svg" xmlns:xlink="http://www.w3.org/1999/xlink" ><g id="svgg"><path id="path0" d="" stroke="none" fill="#008cde" fill-rule="evenodd"></path><path id="path1" d="M274.800 38.295 C 274.800 40.597,274.730 41.781,274.600 41.700 C 274.490 41.632,274.400 41.628,274.400 41.690 C 274.400 41.753,275.007 42.083,275.750 42.422 C 276.493 42.762,277.649 43.297,278.321 43.610 C 278.992 43.924,279.667 44.207,279.821 44.240 C 279.974 44.273,280.145 44.352,280.200 44.415 C 280.255 44.478,281.965 45.387,284.000 46.435 C 365.235 88.275,399.772 186.293,362.807 270.100 C 348.521 302.489,322.998 331.098,292.500 348.908 C 288.211 351.413,287.624 351.744,286.450 352.317 C 285.873 352.599,285.400 352.913,285.400 353.015 C 285.400 353.117,285.332 353.181,285.250 353.159 C 285.168 353.136,283.705 353.800,282.000 354.635 C 280.295 355.471,278.405 356.380,277.800 356.657 C 277.195 356.935,276.250 357.372,275.700 357.631 L 274.700 358.100 274.700 360.426 C 274.700 363.038,274.526 362.850,276.260 362.111 C 276.956 361.814,277.543 361.548,280.800 360.058 C 283.829 358.673,288.400 356.368,288.400 356.227 C 288.400 356.139,288.512 356.063,288.650 356.059 C 289.020 356.047,289.486 355.915,289.600 355.790 C 289.849 355.517,291.600 354.600,291.603 354.742 C 291.605 354.829,291.672 354.805,291.753 354.689 C 292.000 354.336,293.330 353.597,293.469 353.736 C 293.541 353.808,293.600 353.756,293.600 353.622 C 293.600 353.487,293.681 353.426,293.779 353.487 C 293.878 353.548,294.009 353.465,294.071 353.302 C 294.142 353.119,294.315 353.057,294.525 353.137 C 294.780 353.235,294.824 353.197,294.701 352.984 C 294.610 352.828,294.605 352.762,294.689 352.838 C 294.774 352.914,295.023 352.808,295.243 352.603 C 295.464 352.397,295.784 352.283,295.955 352.349 C 296.145 352.422,296.215 352.386,296.134 352.255 C 295.990 352.022,296.540 351.710,296.970 351.782 C 297.119 351.807,297.192 351.749,297.133 351.653 C 297.074 351.558,297.196 351.374,297.404 351.244 C 297.643 351.095,297.826 351.080,297.903 351.204 C 297.969 351.312,297.923 351.400,297.800 351.400 C 297.677 351.400,297.633 351.491,297.701 351.602 C 297.771 351.715,297.555 351.859,297.217 351.927 C 296.881 351.994,296.654 352.125,296.711 352.218 C 296.769 352.312,296.565 352.449,296.258 352.522 C 295.951 352.596,295.539 352.824,295.342 353.028 C 295.145 353.233,294.818 353.400,294.614 353.400 C 294.410 353.400,294.194 353.527,294.134 353.682 C 294.075 353.838,293.705 354.081,293.313 354.223 C 292.921 354.364,292.600 354.539,292.600 354.610 C 292.600 354.681,292.218 354.905,291.750 355.107 C 291.282 355.309,290.754 355.596,290.576 355.745 C 290.398 355.893,288.193 357.044,285.676 358.304 C 283.159 359.563,281.010 360.662,280.900 360.747 C 280.790 360.831,280.542 360.927,280.348 360.959 C 280.155 360.992,279.570 361.226,279.048 361.480 C 278.527 361.734,277.359 362.248,276.453 362.621 L 274.805 363.300 274.803 364.267 C 274.801 364.969,274.868 365.202,275.050 365.117 C 275.188 365.053,275.457 364.945,275.650 364.877 C 275.843 364.809,276.000 364.669,276.000 364.565 C 276.000 364.461,276.081 364.427,276.180 364.488 C 276.427 364.640,286.800 359.430,286.800 359.154 C 286.800 359.033,286.855 358.988,286.922 359.055 C 287.079 359.212,289.221 358.053,293.600 355.441 C 341.880 326.644,374.250 276.755,380.702 221.200 C 389.252 147.587,352.843 77.164,287.600 41.119 C 285.895 40.177,277.155 35.791,276.000 35.298 C 275.505 35.087,275.032 34.881,274.950 34.840 C 274.868 34.800,274.800 36.354,274.800 38.295 M229.650 375.338 C 229.843 375.388,230.157 375.388,230.350 375.338 C 230.543 375.288,230.385 375.246,230.000 375.246 C 229.615 375.246,229.457 375.288,229.650 375.338 M228.152 375.541 C 228.401 375.589,228.761 375.587,228.952 375.537 C 229.144 375.487,228.940 375.448,228.500 375.450 C 228.060 375.453,227.904 375.494,228.152 375.541 M226.350 375.741 C 226.597 375.789,227.003 375.789,227.250 375.741 C 227.498 375.693,227.295 375.654,226.800 375.654 C 226.305 375.654,226.103 375.693,226.350 375.741 M224.453 375.944 C 224.757 375.989,225.207 375.988,225.453 375.941 C 225.699 375.893,225.450 375.856,224.900 375.857 C 224.350 375.859,224.149 375.898,224.453 375.944 M219.500 376.232 C 218.620 376.327,213.490 376.471,208.100 376.554 C 198.502 376.700,198.384 376.706,202.349 376.875 C 207.459 377.091,216.995 376.776,222.402 376.211 L 223.900 376.054 222.500 376.057 C 221.730 376.059,220.380 376.138,219.500 376.232 M193.800 376.400 C 193.800 376.510,193.980 376.600,194.200 376.600 C 194.420 376.600,194.600 376.510,194.600 376.400 C 194.600 376.290,194.420 376.200,194.200 376.200 C 193.980 376.200,193.800 376.290,193.800 376.400 M197.200 376.600 C 197.200 376.710,197.425 376.800,197.700 376.800 C 197.975 376.800,198.200 376.710,198.200 376.600 C 198.200 376.490,197.975 376.400,197.700 376.400 C 197.425 376.400,197.200 376.490,197.200 376.600 " stroke="none" fill="#0095e3" fill-rule="evenodd"></path><path id="path2" d="M189.740 19.217 C 184.342 19.526,172.687 20.802,172.128 21.146 C 172.033 21.204,171.448 21.289,170.828 21.335 C 170.207 21.381,169.670 21.505,169.633 21.611 C 169.596 21.716,169.487 21.754,169.390 21.694 C 169.156 21.549,165.568 22.178,165.285 22.413 C 165.163 22.514,165.011 22.544,164.947 22.480 C 164.816 22.349,159.754 23.387,159.600 23.577 C 159.545 23.645,159.365 23.703,159.200 23.707 C 159.035 23.710,158.472 23.788,157.950 23.879 L 157.000 24.045 157.000 25.223 C 157.000 26.307,157.036 26.401,157.450 26.413 L 157.900 26.425 157.450 26.606 C 157.065 26.761,156.894 27.191,156.966 27.820 C 156.974 27.887,156.737 27.912,156.440 27.878 C 156.143 27.843,156.059 27.863,156.252 27.922 C 156.446 27.982,156.544 28.129,156.470 28.249 C 156.383 28.389,156.454 28.422,156.667 28.340 C 156.969 28.225,157.000 28.507,157.003 31.356 C 157.005 33.085,157.072 34.410,157.153 34.300 C 157.234 34.190,157.569 34.071,157.897 34.035 C 158.226 33.999,158.541 33.909,158.597 33.835 C 158.654 33.761,158.790 33.697,158.900 33.693 C 159.577 33.670,160.800 33.334,160.800 33.171 C 160.800 33.064,160.874 33.022,160.965 33.079 C 161.143 33.189,166.233 32.004,166.400 31.814 C 166.455 31.751,166.809 31.675,167.186 31.644 C 167.564 31.614,167.977 31.502,168.105 31.396 C 168.232 31.290,168.386 31.253,168.447 31.314 C 168.508 31.374,169.624 31.199,170.929 30.923 C 193.367 26.188,218.530 26.291,241.400 31.213 C 243.435 31.651,245.280 32.048,245.500 32.094 C 245.883 32.176,246.332 32.283,247.200 32.500 C 247.420 32.555,247.803 32.650,248.050 32.712 C 248.594 32.847,248.661 32.865,249.799 33.187 C 250.294 33.327,250.879 33.483,251.099 33.533 C 251.648 33.657,251.850 33.718,252.200 33.867 C 252.365 33.938,252.680 34.021,252.900 34.053 C 253.120 34.085,253.390 34.166,253.500 34.232 C 253.610 34.299,254.015 34.425,254.400 34.513 C 254.785 34.601,255.190 34.694,255.300 34.719 C 255.410 34.745,255.882 34.904,256.350 35.074 C 256.818 35.243,257.200 35.330,257.200 35.267 C 257.200 35.203,257.335 35.263,257.500 35.400 C 257.665 35.537,257.800 35.582,257.800 35.500 C 257.800 35.418,257.935 35.463,258.100 35.600 C 258.265 35.737,258.400 35.782,258.400 35.700 C 258.400 35.618,258.535 35.663,258.700 35.800 C 258.865 35.937,259.000 35.982,259.000 35.900 C 259.000 35.818,259.135 35.863,259.300 36.000 C 259.465 36.137,259.600 36.182,259.600 36.100 C 259.600 36.018,259.735 36.063,259.900 36.200 C 260.065 36.337,260.200 36.382,260.200 36.300 C 260.200 36.218,260.335 36.263,260.500 36.400 C 260.665 36.537,260.800 36.582,260.800 36.500 C 260.800 36.418,260.935 36.463,261.100 36.600 C 261.265 36.737,261.400 36.782,261.400 36.700 C 261.400 36.618,261.535 36.663,261.700 36.800 C 261.865 36.937,262.000 36.982,262.000 36.900 C 262.000 36.818,262.121 36.851,262.268 36.974 C 262.416 37.096,262.585 37.148,262.645 37.088 C 262.704 37.029,263.079 37.163,263.476 37.387 C 263.874 37.610,264.200 37.739,264.200 37.672 C 264.200 37.606,264.321 37.651,264.468 37.774 C 264.616 37.896,264.795 37.938,264.867 37.866 C 264.939 37.794,265.178 37.899,265.399 38.099 C 265.619 38.299,265.800 38.392,265.800 38.307 C 265.800 38.221,265.937 38.265,266.105 38.404 C 266.272 38.543,266.468 38.599,266.539 38.528 C 266.610 38.457,266.832 38.548,267.034 38.731 C 267.235 38.913,267.400 39.001,267.400 38.926 C 267.400 38.852,267.625 38.938,267.900 39.118 C 268.175 39.299,268.400 39.389,268.400 39.318 C 268.400 39.248,268.625 39.338,268.900 39.518 C 269.175 39.699,269.400 39.789,269.400 39.718 C 269.400 39.648,269.610 39.728,269.866 39.896 C 270.122 40.064,270.392 40.142,270.465 40.069 C 270.538 39.996,270.779 40.100,271.000 40.300 C 271.221 40.500,271.459 40.608,271.528 40.539 C 271.597 40.470,271.877 40.589,272.150 40.804 C 272.423 41.019,272.732 41.142,272.836 41.078 C 272.940 41.013,273.198 41.117,273.408 41.307 C 273.619 41.498,274.018 41.679,274.296 41.709 L 274.800 41.765 274.800 38.282 C 274.800 35.898,274.731 34.800,274.582 34.800 C 274.461 34.800,274.136 34.621,273.858 34.403 C 273.580 34.184,273.268 34.058,273.164 34.122 C 273.060 34.187,272.799 34.080,272.584 33.886 C 272.370 33.692,272.034 33.521,271.838 33.506 C 271.642 33.492,271.273 33.334,271.018 33.155 C 270.763 32.976,270.444 32.872,270.309 32.924 C 270.174 32.976,269.949 32.880,269.809 32.711 C 269.669 32.543,269.469 32.457,269.365 32.522 C 269.260 32.586,269.006 32.487,268.800 32.300 C 268.594 32.113,268.340 32.014,268.235 32.078 C 268.131 32.143,267.931 32.057,267.791 31.889 C 267.651 31.720,267.422 31.626,267.283 31.679 C 267.143 31.732,266.922 31.648,266.792 31.490 C 266.661 31.333,266.469 31.257,266.365 31.322 C 266.260 31.386,266.000 31.281,265.787 31.089 C 265.574 30.896,265.400 30.808,265.400 30.893 C 265.400 30.979,265.265 30.937,265.100 30.800 C 264.935 30.663,264.800 30.610,264.800 30.683 C 264.800 30.755,264.598 30.702,264.350 30.564 C 264.103 30.427,263.832 30.300,263.750 30.282 C 263.668 30.264,263.532 30.228,263.450 30.201 C 263.368 30.175,263.221 30.167,263.125 30.185 C 263.029 30.202,262.781 30.064,262.575 29.877 C 262.369 29.691,262.200 29.608,262.200 29.693 C 262.200 29.779,262.065 29.737,261.900 29.600 C 261.735 29.463,261.600 29.425,261.600 29.516 C 261.600 29.606,261.499 29.579,261.376 29.456 C 261.252 29.332,261.027 29.279,260.876 29.337 C 260.724 29.395,260.600 29.358,260.600 29.255 C 260.600 29.151,260.488 29.058,260.350 29.047 C 260.213 29.036,258.818 28.573,257.250 28.019 C 255.683 27.465,254.400 27.064,254.400 27.130 C 254.400 27.195,254.265 27.137,254.100 27.000 C 253.935 26.863,253.800 26.802,253.800 26.865 C 253.800 26.928,253.485 26.848,253.100 26.687 C 252.715 26.526,252.400 26.452,252.400 26.522 C 252.400 26.592,252.265 26.537,252.100 26.400 C 251.935 26.263,251.800 26.202,251.800 26.265 C 251.800 26.328,251.485 26.248,251.101 26.088 C 250.716 25.927,250.334 25.796,250.251 25.797 C 250.168 25.797,249.830 25.712,249.500 25.606 C 249.170 25.501,248.675 25.372,248.400 25.321 C 248.125 25.269,247.450 25.090,246.900 24.924 C 246.350 24.757,245.675 24.572,245.400 24.514 C 245.125 24.455,243.820 24.143,242.500 23.821 C 226.757 19.972,206.868 18.237,189.740 19.217 M207.750 21.148 C 207.007 21.187,205.793 21.187,205.050 21.148 C 204.308 21.110,204.915 21.078,206.400 21.078 C 207.885 21.078,208.493 21.110,207.750 21.148 M163.800 24.901 C 162.755 25.156,161.868 25.333,161.830 25.295 C 161.702 25.170,164.660 24.441,165.300 24.439 C 165.520 24.439,164.845 24.646,163.800 24.901 M160.400 25.691 C 160.400 25.818,158.940 26.207,158.839 26.106 C 158.794 26.060,159.059 25.936,159.428 25.829 C 160.241 25.595,160.400 25.573,160.400 25.691 M154.700 28.307 C 154.370 28.458,154.218 28.586,154.362 28.591 C 154.506 28.596,154.567 28.713,154.497 28.850 C 154.427 28.988,154.512 28.925,154.685 28.712 C 154.863 28.492,155.000 28.432,155.000 28.574 C 155.000 28.711,155.091 28.767,155.203 28.698 C 155.315 28.629,155.359 28.495,155.301 28.401 C 155.243 28.307,155.354 28.189,155.548 28.138 C 155.781 28.078,155.798 28.044,155.600 28.039 C 155.435 28.036,155.030 28.156,154.700 28.307 M150.042 29.760 C 148.580 30.258,147.487 30.730,147.614 30.809 C 147.786 30.915,147.787 30.980,147.618 31.061 C 147.478 31.128,147.488 31.147,147.645 31.110 C 147.785 31.077,147.878 30.949,147.850 30.825 C 147.823 30.701,147.940 30.600,148.112 30.600 C 148.297 30.600,148.365 30.694,148.281 30.831 C 148.192 30.975,148.226 31.007,148.372 30.917 C 148.501 30.837,148.555 30.689,148.491 30.586 C 148.428 30.484,148.472 30.400,148.588 30.400 C 148.705 30.400,148.800 30.490,148.800 30.600 C 148.800 30.956,149.199 30.812,149.216 30.450 C 149.225 30.241,149.272 30.201,149.332 30.350 C 149.481 30.719,149.798 30.654,149.816 30.250 C 149.825 30.041,149.872 30.001,149.932 30.150 C 150.081 30.519,150.398 30.454,150.416 30.050 C 150.425 29.841,150.472 29.801,150.532 29.950 C 150.681 30.319,150.998 30.254,151.016 29.850 C 151.025 29.641,151.072 29.601,151.132 29.750 C 151.281 30.119,151.598 30.054,151.616 29.650 C 151.625 29.441,151.672 29.401,151.732 29.550 C 151.788 29.688,151.925 29.800,152.038 29.800 C 152.151 29.800,152.191 29.665,152.128 29.500 C 152.056 29.314,152.129 29.200,152.318 29.200 C 152.498 29.200,152.565 29.295,152.481 29.431 C 152.392 29.575,152.426 29.607,152.572 29.517 C 152.701 29.437,152.759 29.295,152.701 29.201 C 152.643 29.107,152.754 28.989,152.948 28.938 C 153.166 28.881,153.186 28.848,153.000 28.850 C 152.835 28.852,151.504 29.261,150.042 29.760 M144.000 31.400 C 143.733 31.572,143.733 31.594,144.000 31.594 C 144.165 31.594,144.435 31.507,144.600 31.400 C 144.867 31.228,144.867 31.206,144.600 31.206 C 144.435 31.206,144.165 31.293,144.000 31.400 M145.500 31.400 C 145.280 31.495,145.218 31.578,145.362 31.586 C 145.506 31.594,145.568 31.690,145.500 31.800 C 145.432 31.910,145.472 32.000,145.588 32.000 C 145.705 32.000,145.807 31.843,145.816 31.650 C 145.825 31.439,145.872 31.400,145.933 31.551 C 145.989 31.689,146.118 31.751,146.220 31.687 C 146.730 31.372,146.126 31.131,145.500 31.400 M143.900 31.991 C 143.534 32.140,143.547 32.166,144.059 32.301 C 144.667 32.461,144.916 32.350,144.708 32.013 C 144.557 31.769,144.453 31.766,143.900 31.991 M132.985 36.450 C 132.814 37.009,132.879 37.142,133.271 37.034 C 133.663 36.926,133.668 36.909,133.321 36.838 C 133.018 36.775,132.998 36.724,133.221 36.583 C 133.421 36.456,133.429 36.405,133.250 36.403 C 133.113 36.401,132.993 36.423,132.985 36.450 M129.250 37.712 C 128.672 37.976,128.200 38.236,128.200 38.289 C 128.200 38.421,130.052 37.622,130.290 37.387 C 130.549 37.132,130.459 37.160,129.250 37.712 M129.800 38.015 C 129.331 38.282,129.257 38.371,129.575 38.285 C 129.894 38.199,130.006 38.229,129.915 38.376 C 129.826 38.519,129.901 38.549,130.130 38.461 C 130.361 38.372,130.395 38.298,130.229 38.243 C 130.054 38.185,130.086 38.078,130.339 37.886 C 130.856 37.494,130.613 37.552,129.800 38.015 M297.249 351.333 C 297.111 351.389,297.042 351.506,297.096 351.593 C 297.149 351.680,296.919 351.806,296.583 351.873 C 296.245 351.941,296.029 352.085,296.099 352.198 C 296.167 352.309,296.038 352.400,295.810 352.400 C 295.582 352.400,295.242 352.580,295.054 352.800 C 294.865 353.020,294.551 353.200,294.356 353.200 C 294.160 353.200,294.000 353.295,294.000 353.412 C 294.000 353.528,293.910 353.568,293.800 353.500 C 293.690 353.432,293.600 353.454,293.600 353.548 C 293.600 353.642,293.286 353.833,292.902 353.972 C 292.518 354.111,292.091 354.333,291.952 354.466 C 291.813 354.598,291.304 354.883,290.821 355.097 C 290.337 355.312,289.816 355.612,289.663 355.765 C 289.510 355.918,289.172 356.056,288.912 356.072 C 288.651 356.087,288.469 356.150,288.507 356.211 C 288.594 356.352,281.415 359.917,281.177 359.850 C 281.080 359.823,281.000 359.890,281.000 360.000 C 281.000 360.110,280.933 360.182,280.850 360.160 C 280.768 360.138,280.228 360.365,279.650 360.663 C 279.072 360.962,278.600 361.158,278.600 361.099 C 278.600 361.039,278.397 361.122,278.150 361.283 C 277.446 361.741,274.270 363.055,274.550 362.772 C 274.719 362.602,274.800 361.820,274.800 360.360 C 274.800 358.395,274.654 357.827,274.298 358.403 C 274.229 358.515,274.085 358.552,273.977 358.486 C 273.870 358.420,273.539 358.528,273.241 358.727 C 272.944 358.926,272.625 359.066,272.533 359.039 C 272.441 359.011,272.058 359.178,271.683 359.411 C 271.307 359.643,271.000 359.766,271.000 359.685 C 271.000 359.604,270.835 359.687,270.634 359.869 C 270.432 360.052,270.208 360.141,270.135 360.068 C 270.062 359.995,269.837 360.085,269.635 360.268 C 269.433 360.451,269.208 360.541,269.135 360.468 C 269.062 360.395,268.837 360.485,268.635 360.668 C 268.433 360.851,268.215 360.948,268.151 360.884 C 268.087 360.820,267.802 360.921,267.517 361.107 C 267.233 361.293,267.000 361.380,267.000 361.299 C 267.000 361.217,266.865 361.263,266.700 361.400 C 266.535 361.537,266.400 361.579,266.400 361.493 C 266.400 361.408,266.226 361.496,266.013 361.689 C 265.800 361.881,265.536 361.984,265.426 361.916 C 265.317 361.849,265.170 361.886,265.100 362.000 C 265.030 362.114,264.895 362.159,264.800 362.100 C 264.705 362.041,264.571 362.085,264.502 362.197 C 264.433 362.309,264.202 362.400,263.988 362.400 C 263.775 362.400,263.600 362.495,263.600 362.612 C 263.600 362.728,263.510 362.768,263.400 362.700 C 263.290 362.632,263.088 362.648,262.950 362.735 C 262.813 362.822,262.632 362.907,262.550 362.922 C 262.468 362.937,262.355 362.973,262.300 363.000 C 262.245 363.028,262.132 363.069,262.050 363.092 C 261.968 363.115,261.657 363.234,261.361 363.358 C 261.064 363.481,260.164 363.774,259.361 364.008 C 258.557 364.242,257.765 364.486,257.600 364.549 C 257.435 364.613,257.255 364.675,257.200 364.686 C 257.145 364.697,256.988 364.778,256.850 364.865 C 256.713 364.952,256.600 364.977,256.600 364.921 C 256.600 364.864,256.218 364.956,255.750 365.125 C 255.282 365.294,254.684 365.474,254.419 365.525 C 254.155 365.577,253.772 365.708,253.569 365.817 C 253.366 365.925,253.200 365.965,253.200 365.904 C 253.200 365.844,252.885 365.926,252.500 366.087 C 252.115 366.248,251.800 366.341,251.800 366.295 C 251.800 366.248,251.553 366.306,251.250 366.423 C 250.709 366.632,250.377 366.722,249.415 366.920 C 249.149 366.975,248.069 367.245,247.015 367.519 C 231.588 371.535,209.538 373.497,193.900 372.244 C 183.793 371.434,174.125 369.995,166.650 368.188 C 165.735 367.967,164.899 367.839,164.793 367.905 C 164.687 367.970,164.600 367.939,164.600 367.835 C 164.600 367.679,163.277 367.348,162.500 367.310 C 162.390 367.304,162.255 367.246,162.200 367.180 C 162.090 367.049,158.767 366.165,158.232 366.125 C 158.050 366.111,157.855 366.046,157.800 365.981 C 157.745 365.915,157.430 365.806,157.100 365.739 C 156.770 365.671,156.613 365.665,156.750 365.725 C 156.924 365.800,157.000 366.396,157.000 367.692 L 157.000 369.551 158.640 369.962 C 159.542 370.189,160.352 370.330,160.440 370.275 C 160.528 370.221,160.600 370.257,160.600 370.356 C 160.600 370.455,161.102 370.649,161.716 370.786 C 162.329 370.923,162.788 371.078,162.736 371.130 C 162.586 371.281,155.800 369.463,155.800 369.272 C 155.800 369.218,156.003 369.230,156.250 369.300 C 156.587 369.395,156.627 369.376,156.409 369.226 C 156.250 369.116,155.853 369.079,155.528 369.144 C 155.073 369.235,154.975 369.202,155.100 369.000 C 155.207 368.827,155.184 368.786,155.031 368.881 C 154.720 369.073,154.736 369.613,155.050 369.550 C 155.188 369.523,155.271 369.635,155.236 369.800 C 155.184 370.041,155.222 370.050,155.426 369.850 C 155.780 369.501,155.997 369.538,156.016 369.950 C 156.025 370.159,156.072 370.199,156.132 370.050 C 156.188 369.913,156.370 369.800,156.538 369.800 C 156.738 369.800,156.800 369.912,156.717 370.128 C 156.611 370.405,156.640 370.416,156.900 370.200 C 157.070 370.059,157.267 370.001,157.338 370.071 C 157.409 370.142,157.362 370.200,157.233 370.200 C 157.066 370.200,157.000 371.018,157.000 373.077 L 157.000 375.955 157.950 376.122 C 158.472 376.214,159.035 376.301,159.200 376.315 C 159.365 376.330,159.767 376.450,160.094 376.583 C 160.421 376.715,160.848 376.782,161.044 376.731 C 161.240 376.679,161.400 376.704,161.400 376.786 C 161.400 376.959,167.515 378.189,168.700 378.255 C 169.140 378.280,169.548 378.363,169.606 378.440 C 169.664 378.517,170.216 378.618,170.833 378.664 C 171.450 378.711,172.033 378.796,172.128 378.854 C 172.222 378.913,174.055 379.192,176.200 379.476 C 198.085 382.369,222.055 381.177,242.500 376.179 C 243.820 375.857,245.125 375.545,245.400 375.486 C 245.675 375.428,246.350 375.243,246.900 375.076 C 247.450 374.910,248.125 374.731,248.400 374.679 C 248.675 374.628,249.170 374.499,249.500 374.394 C 249.830 374.288,250.168 374.203,250.251 374.203 C 250.334 374.204,250.716 374.073,251.101 373.912 C 251.485 373.752,251.800 373.672,251.800 373.735 C 251.800 373.798,251.935 373.737,252.100 373.600 C 252.265 373.463,252.400 373.408,252.400 373.478 C 252.400 373.548,252.715 373.474,253.100 373.313 C 253.485 373.152,253.800 373.072,253.800 373.135 C 253.800 373.198,253.935 373.137,254.100 373.000 C 254.265 372.863,254.400 372.802,254.400 372.864 C 254.400 372.926,255.053 372.750,255.850 372.473 C 256.647 372.196,257.435 371.938,257.600 371.900 C 257.765 371.862,257.923 371.812,257.950 371.790 C 257.978 371.768,258.090 371.728,258.200 371.700 C 258.310 371.673,258.445 371.628,258.500 371.600 C 258.555 371.572,258.668 371.531,258.750 371.508 C 258.832 371.485,259.153 371.362,259.463 371.233 C 259.773 371.105,260.155 371.000,260.313 371.000 C 260.471 371.000,260.600 370.900,260.600 370.779 C 260.600 370.657,260.735 370.609,260.900 370.672 C 261.065 370.736,261.200 370.691,261.200 370.572 C 261.200 370.454,261.326 370.406,261.480 370.465 C 261.635 370.524,261.822 370.511,261.897 370.436 C 261.972 370.361,262.093 370.297,262.167 370.293 C 262.240 370.289,262.491 370.180,262.724 370.050 C 262.957 369.920,263.204 369.871,263.274 369.940 C 263.343 370.010,263.400 369.958,263.400 369.825 C 263.400 369.691,263.512 369.605,263.650 369.633 C 263.788 369.661,264.103 369.572,264.350 369.435 C 264.598 369.298,264.800 369.245,264.800 369.317 C 264.800 369.390,264.921 369.349,265.068 369.226 C 265.216 369.104,265.383 369.050,265.440 369.107 C 265.497 369.163,265.652 369.078,265.786 368.917 C 265.920 368.756,266.143 368.668,266.283 368.721 C 266.422 368.774,266.647 368.684,266.783 368.521 C 266.918 368.358,267.143 368.268,267.283 368.321 C 267.422 368.374,267.647 368.284,267.783 368.121 C 267.918 367.958,268.143 367.868,268.283 367.921 C 268.422 367.974,268.651 367.880,268.791 367.711 C 268.931 367.543,269.131 367.457,269.235 367.522 C 269.340 367.586,269.594 367.487,269.800 367.300 C 270.006 367.113,270.260 367.013,270.364 367.078 C 270.468 367.142,270.777 367.019,271.050 366.804 C 271.323 366.589,271.601 366.467,271.667 366.534 C 271.733 366.600,272.038 366.489,272.344 366.288 C 272.650 366.086,273.056 365.909,273.247 365.894 C 273.438 365.879,273.770 365.708,273.984 365.514 C 274.199 365.320,274.470 365.220,274.587 365.292 C 274.727 365.379,274.800 365.058,274.800 364.354 L 274.800 363.284 276.650 362.518 C 277.668 362.097,278.931 361.535,279.459 361.270 C 279.986 361.004,280.496 360.836,280.592 360.895 C 280.687 360.954,280.796 360.929,280.833 360.839 C 280.870 360.749,283.013 359.619,285.595 358.328 C 288.177 357.037,290.427 355.867,290.595 355.728 C 290.763 355.589,291.282 355.309,291.750 355.107 C 292.218 354.905,292.600 354.681,292.600 354.610 C 292.600 354.539,292.921 354.364,293.313 354.223 C 293.705 354.081,294.075 353.838,294.134 353.682 C 294.194 353.527,294.410 353.400,294.614 353.400 C 294.818 353.400,295.145 353.233,295.342 353.028 C 295.539 352.824,295.951 352.596,296.258 352.522 C 296.565 352.449,296.769 352.312,296.711 352.218 C 296.654 352.125,296.881 351.994,297.217 351.927 C 297.552 351.860,297.775 351.721,297.712 351.619 C 297.649 351.518,297.711 351.389,297.849 351.333 C 298.018 351.265,298.002 351.232,297.800 351.232 C 297.635 351.232,297.387 351.277,297.249 351.333 M143.400 365.317 C 143.007 365.535,142.978 365.595,143.262 365.597 C 143.494 365.599,143.572 365.689,143.480 365.850 C 143.396 365.995,143.412 366.030,143.518 365.933 C 143.618 365.842,143.701 365.707,143.703 365.633 C 143.705 365.560,143.778 365.388,143.865 365.250 C 144.051 364.957,144.048 364.957,143.400 365.317 M144.850 365.532 C 144.492 365.677,144.541 366.200,144.912 366.200 C 145.097 366.200,145.165 366.294,145.081 366.431 C 144.998 366.564,145.025 366.608,145.145 366.534 C 145.259 366.464,145.403 366.212,145.465 365.974 C 145.549 365.650,145.521 365.599,145.349 365.771 C 145.010 366.110,144.710 366.049,145.000 365.700 C 145.262 365.384,145.251 365.371,144.850 365.532 M267.396 365.656 C 267.228 365.790,267.104 366.105,267.119 366.356 C 267.134 366.607,267.091 366.757,267.023 366.690 C 266.955 366.622,266.898 366.462,266.895 366.333 C 266.893 366.205,266.729 366.113,266.532 366.130 C 266.119 366.165,266.205 366.044,266.846 365.690 C 267.435 365.365,267.787 365.343,267.396 365.656 M146.900 366.600 C 146.551 366.986,146.551 367.000,146.902 367.000 C 147.103 367.000,147.207 366.941,147.135 366.868 C 147.063 366.796,147.104 366.616,147.226 366.468 C 147.578 366.045,147.302 366.156,146.900 366.600 M148.067 366.850 C 147.850 367.198,147.802 367.622,147.993 367.504 C 148.154 367.405,148.421 366.600,148.293 366.600 C 148.255 366.600,148.153 366.713,148.067 366.850 M265.900 366.800 C 265.832 366.910,265.887 367.000,266.022 367.000 C 266.156 367.000,266.225 367.041,266.175 367.092 C 266.124 367.143,265.866 367.128,265.602 367.058 C 265.155 366.942,265.149 366.922,265.511 366.780 C 266.040 366.573,266.040 366.573,265.900 366.800 M264.200 366.884 C 264.200 366.930,264.255 367.110,264.321 367.284 C 264.388 367.458,264.343 367.600,264.221 367.600 C 264.100 367.600,264.022 367.499,264.050 367.375 C 264.078 367.251,263.997 367.112,263.871 367.065 C 263.744 367.019,263.654 367.140,263.671 367.335 C 263.690 367.570,263.558 367.692,263.281 367.695 C 263.050 367.698,262.695 367.835,262.492 368.000 C 262.204 368.234,262.160 368.239,262.293 368.019 C 262.411 367.823,262.388 367.784,262.217 367.890 C 262.082 367.973,261.886 368.234,261.780 368.470 L 261.589 368.900 261.672 368.463 C 261.718 368.223,261.644 367.983,261.507 367.930 C 261.344 367.868,261.277 368.001,261.312 368.318 C 261.341 368.583,261.283 368.800,261.182 368.800 C 261.082 368.800,261.000 368.670,261.000 368.512 C 261.000 368.353,260.911 368.169,260.802 368.101 C 260.685 368.029,260.656 368.126,260.731 368.340 C 260.850 368.681,260.838 368.682,260.490 368.355 C 260.025 367.916,260.143 367.807,261.149 367.748 C 261.594 367.721,261.909 367.618,261.848 367.518 C 261.787 367.419,261.932 367.388,262.169 367.450 C 262.446 367.522,262.553 367.486,262.469 367.350 C 262.385 367.213,262.492 367.178,262.769 367.250 C 263.006 367.312,263.154 367.288,263.098 367.196 C 263.041 367.105,263.154 366.989,263.348 366.938 C 263.845 366.808,264.200 366.786,264.200 366.884 M152.267 368.250 C 152.050 368.598,152.002 369.022,152.193 368.904 C 152.354 368.805,152.621 368.000,152.493 368.000 C 152.455 368.000,152.353 368.113,152.267 368.250 M259.935 368.132 C 259.863 368.204,259.907 368.388,260.033 368.540 C 260.208 368.750,260.200 368.875,260.002 369.058 C 259.793 369.252,259.765 369.231,259.862 368.956 C 259.928 368.767,259.896 368.560,259.791 368.495 C 259.524 368.329,259.552 368.000,259.833 368.000 C 259.962 368.000,260.007 368.059,259.935 368.132 M259.479 368.516 C 259.666 369.005,259.628 369.112,259.250 369.154 C 258.610 369.227,258.303 369.310,258.019 369.487 C 257.835 369.602,257.784 369.588,257.870 369.448 C 257.943 369.330,257.889 369.194,257.751 369.144 C 257.463 369.042,257.634 368.790,258.032 368.729 C 258.179 368.707,258.426 368.610,258.581 368.513 C 258.785 368.386,258.824 368.415,258.723 368.619 C 258.647 368.774,258.700 368.743,258.842 368.550 C 259.159 368.117,259.322 368.108,259.479 368.516 M153.533 368.533 C 153.324 368.743,153.378 369.200,153.612 369.200 C 153.728 369.200,153.771 369.116,153.708 369.012 C 153.644 368.909,153.751 368.732,153.946 368.618 C 154.243 368.445,154.249 368.411,153.983 368.406 C 153.809 368.403,153.607 368.460,153.533 368.533 M257.450 369.185 C 257.804 369.221,257.553 369.530,257.000 369.739 C 256.547 369.910,256.399 369.908,256.397 369.733 C 256.395 369.595,256.320 369.617,256.212 369.788 C 256.112 369.946,255.778 370.110,255.470 370.151 C 255.162 370.192,254.795 370.321,254.655 370.437 C 254.469 370.591,254.399 370.574,254.397 370.374 C 254.395 370.156,254.360 370.153,254.231 370.357 C 254.141 370.498,253.918 370.556,253.734 370.485 C 253.398 370.356,253.271 370.013,253.550 369.985 C 253.632 369.976,253.880 369.924,254.100 369.868 C 254.320 369.813,254.748 369.753,255.050 369.734 C 255.353 369.716,255.600 369.633,255.600 369.550 C 255.600 369.468,255.775 369.400,255.988 369.400 C 256.202 369.400,256.427 369.318,256.489 369.218 C 256.551 369.118,256.759 369.066,256.951 369.103 C 257.143 369.139,257.368 369.176,257.450 369.185 M252.473 370.450 C 252.366 370.628,252.418 370.623,252.653 370.433 C 252.966 370.179,253.400 370.258,253.400 370.568 C 253.400 370.647,253.130 370.814,252.800 370.939 C 252.347 371.110,252.199 371.108,252.197 370.933 C 252.195 370.775,252.141 370.783,252.031 370.957 C 251.941 371.099,251.605 371.261,251.284 371.317 C 250.963 371.374,250.205 371.554,249.600 371.718 C 247.396 372.314,247.044 372.400,246.300 372.521 C 245.970 372.575,245.565 372.668,245.400 372.727 C 245.235 372.787,244.875 372.877,244.600 372.927 C 244.325 372.978,242.570 373.323,240.700 373.694 C 229.228 375.973,219.893 376.866,207.400 376.879 C 197.947 376.890,197.200 376.869,197.200 376.593 C 197.200 376.487,196.998 376.406,196.750 376.414 C 196.321 376.427,196.318 376.436,196.700 376.600 C 196.991 376.725,196.829 376.769,196.100 376.762 C 195.271 376.754,195.202 376.729,195.700 376.613 C 196.278 376.479,196.269 376.470,195.450 376.382 C 194.983 376.331,194.600 376.359,194.600 376.445 C 194.600 376.656,193.850 376.643,193.767 376.430 C 193.671 376.187,191.428 375.992,191.291 376.215 C 191.228 376.317,190.889 376.388,190.538 376.374 L 189.900 376.347 190.600 376.216 C 191.297 376.085,191.295 376.084,190.300 375.958 C 189.750 375.889,189.215 375.915,189.110 376.016 C 189.006 376.117,188.646 376.188,188.310 376.174 L 187.700 376.147 188.400 376.013 C 189.041 375.890,188.990 375.865,187.800 375.722 C 182.800 375.122,179.852 374.711,176.828 374.194 C 174.919 373.867,173.262 373.600,173.145 373.600 C 173.029 373.600,172.985 373.548,173.049 373.485 C 173.112 373.421,174.770 373.644,176.732 373.980 C 197.948 377.615,222.704 377.101,243.100 372.604 C 244.640 372.264,246.125 371.941,246.400 371.886 C 246.675 371.831,247.935 371.520,249.200 371.196 C 250.465 370.871,251.670 370.562,251.877 370.509 C 252.084 370.456,252.302 370.365,252.360 370.306 C 252.556 370.110,252.625 370.198,252.473 370.450 M165.700 371.707 C 166.236 371.764,167.180 372.172,166.800 372.183 C 166.635 372.187,165.870 372.014,165.100 371.798 C 164.330 371.582,164.060 371.463,164.500 371.535 C 164.940 371.606,165.480 371.684,165.700 371.707 M168.400 372.400 C 168.796 372.527,168.817 372.560,168.500 372.560 C 168.280 372.560,167.875 372.488,167.600 372.400 C 167.204 372.273,167.183 372.240,167.500 372.240 C 167.720 372.240,168.125 372.312,168.400 372.400 M170.491 372.731 C 170.654 372.669,170.845 372.711,170.916 372.826 C 170.987 372.941,171.215 372.990,171.422 372.936 C 171.630 372.882,171.855 372.927,171.922 373.036 C 171.990 373.145,172.215 373.190,172.423 373.136 C 172.630 373.082,172.800 373.119,172.800 373.219 C 172.800 373.478,172.317 373.437,170.500 373.024 C 169.557 372.810,169.064 372.622,169.300 372.566 C 169.520 372.514,169.811 372.555,169.947 372.658 C 170.084 372.761,170.328 372.794,170.491 372.731 M193.350 376.538 C 193.158 376.588,192.843 376.588,192.650 376.538 C 192.458 376.488,192.615 376.446,193.000 376.446 C 193.385 376.446,193.543 376.488,193.350 376.538 " stroke="none" fill="#00a4ec" fill-rule="evenodd"></path><path id="path3" d="M155.000 24.714 C 154.065 24.980,153.055 25.236,152.756 25.283 C 152.456 25.331,152.122 25.425,152.012 25.493 C 151.791 25.629,149.129 26.386,148.500 26.491 C 148.280 26.528,147.740 26.701,147.300 26.877 C 146.860 27.052,146.320 27.224,146.100 27.261 C 145.538 27.353,140.026 29.165,139.300 29.496 C 138.970 29.646,138.436 29.835,138.113 29.915 C 137.791 29.996,137.296 30.182,137.013 30.330 C 136.731 30.477,136.361 30.598,136.190 30.599 C 136.020 30.599,135.795 30.681,135.690 30.779 C 135.586 30.877,134.825 31.196,134.000 31.486 C 133.175 31.777,132.025 32.236,131.445 32.507 C 130.864 32.778,130.293 33.000,130.175 33.000 C 130.058 33.000,129.723 33.128,129.431 33.283 C 129.139 33.439,127.910 33.992,126.700 34.511 C 122.069 36.499,114.372 40.409,109.300 43.351 C 104.744 45.993,98.000 50.341,98.000 50.637 C 98.000 50.740,97.926 50.778,97.836 50.723 C 97.746 50.667,97.431 50.845,97.136 51.119 C 96.841 51.392,96.599 51.545,96.597 51.458 C 96.595 51.371,96.528 51.391,96.447 51.502 C 96.366 51.613,95.963 51.928,95.551 52.202 C 95.140 52.476,94.802 52.767,94.801 52.850 C 94.801 52.933,94.685 53.000,94.545 53.000 C 94.404 53.000,93.994 53.270,93.632 53.600 C 93.271 53.930,92.891 54.200,92.788 54.200 C 92.684 54.200,92.600 54.290,92.600 54.400 C 92.600 54.510,92.469 54.600,92.310 54.600 C 92.150 54.600,91.932 54.758,91.824 54.950 C 91.716 55.142,91.571 55.270,91.500 55.234 C 91.430 55.197,91.041 55.445,90.636 55.784 C 90.231 56.122,89.045 57.043,88.000 57.829 C 86.955 58.615,85.663 59.650,85.128 60.129 C 84.594 60.608,84.076 61.000,83.978 61.000 C 83.880 61.000,83.800 62.620,83.800 64.600 C 83.800 67.128,83.867 68.200,84.024 68.200 C 84.178 68.200,84.169 68.296,83.996 68.505 C 83.284 69.362,84.139 68.879,85.298 67.770 C 86.027 67.071,86.730 66.466,86.862 66.425 C 86.993 66.384,86.356 67.059,85.447 67.925 C 84.537 68.791,83.795 69.567,83.797 69.650 C 83.802 69.911,84.273 69.715,84.636 69.300 C 84.829 69.080,84.990 68.999,84.993 69.119 C 85.001 69.357,84.190 70.164,84.108 70.000 C 84.044 69.872,83.000 71.107,83.000 71.310 C 83.000 71.394,83.178 71.301,83.395 71.104 C 83.787 70.749,83.791 70.775,83.845 74.256 L 83.900 77.765 86.226 75.533 C 88.901 72.965,91.003 71.033,91.979 70.247 C 92.353 69.946,92.904 69.475,93.204 69.200 C 93.505 68.925,94.181 68.340,94.707 67.900 C 95.234 67.460,95.942 66.857,96.282 66.560 C 96.622 66.262,97.575 65.497,98.400 64.859 C 99.225 64.222,100.246 63.430,100.669 63.100 C 103.719 60.720,113.007 54.266,115.169 53.023 C 116.657 52.168,118.753 50.908,119.217 50.591 C 119.501 50.397,120.626 49.766,121.717 49.190 C 122.807 48.614,123.790 48.077,123.900 47.998 C 124.484 47.574,134.599 42.606,136.700 41.710 C 138.309 41.024,138.738 40.839,139.200 40.636 C 141.054 39.821,143.580 38.800,143.744 38.800 C 143.851 38.800,144.226 38.656,144.578 38.481 C 144.930 38.306,145.326 38.146,145.459 38.125 C 145.591 38.105,145.790 38.036,145.900 37.971 C 146.095 37.856,147.600 37.329,147.800 37.305 C 147.855 37.299,147.990 37.238,148.100 37.170 C 148.384 36.994,153.238 35.359,153.604 35.316 C 153.770 35.297,154.018 35.213,154.154 35.129 C 154.289 35.045,154.400 35.024,154.400 35.081 C 154.400 35.139,154.809 35.010,155.309 34.796 C 155.809 34.582,156.282 34.415,156.359 34.427 C 156.968 34.516,157.000 34.358,157.000 31.306 C 157.000 28.503,156.969 28.225,156.667 28.340 C 156.454 28.422,156.383 28.389,156.470 28.249 C 156.544 28.129,156.446 27.982,156.252 27.922 C 156.059 27.863,156.143 27.843,156.440 27.878 C 156.737 27.912,156.974 27.887,156.966 27.820 C 156.894 27.191,157.065 26.761,157.450 26.606 L 157.900 26.425 157.450 26.413 C 157.039 26.401,157.000 26.304,157.000 25.300 C 157.000 24.695,156.933 24.207,156.850 24.215 C 156.768 24.223,155.935 24.447,155.000 24.714 M164.100 24.627 C 162.629 24.969,161.759 25.226,161.830 25.295 C 161.868 25.333,162.755 25.156,163.800 24.901 C 164.845 24.646,165.520 24.439,165.300 24.439 C 165.080 24.440,164.540 24.524,164.100 24.627 M159.428 25.829 C 159.059 25.936,158.794 26.060,158.839 26.106 C 158.940 26.207,160.400 25.818,160.400 25.691 C 160.400 25.573,160.241 25.595,159.428 25.829 M155.548 28.138 C 155.354 28.189,155.243 28.307,155.301 28.401 C 155.359 28.495,155.315 28.629,155.203 28.698 C 155.091 28.767,155.000 28.711,155.000 28.574 C 155.000 28.432,154.863 28.492,154.685 28.712 C 154.512 28.925,154.427 28.988,154.497 28.850 C 154.567 28.713,154.506 28.596,154.362 28.591 C 154.218 28.586,154.370 28.458,154.700 28.307 C 155.030 28.156,155.435 28.036,155.600 28.039 C 155.798 28.044,155.781 28.078,155.548 28.138 M152.948 28.938 C 152.754 28.989,152.643 29.107,152.701 29.201 C 152.759 29.295,152.701 29.437,152.572 29.517 C 152.426 29.607,152.392 29.575,152.481 29.431 C 152.565 29.295,152.498 29.200,152.318 29.200 C 152.129 29.200,152.056 29.314,152.128 29.500 C 152.191 29.665,152.151 29.800,152.038 29.800 C 151.925 29.800,151.788 29.688,151.732 29.550 C 151.672 29.401,151.625 29.441,151.616 29.650 C 151.598 30.054,151.281 30.119,151.132 29.750 C 151.072 29.601,151.025 29.641,151.016 29.850 C 150.998 30.254,150.681 30.319,150.532 29.950 C 150.472 29.801,150.425 29.841,150.416 30.050 C 150.398 30.454,150.081 30.519,149.932 30.150 C 149.872 30.001,149.825 30.041,149.816 30.250 C 149.798 30.654,149.481 30.719,149.332 30.350 C 149.272 30.201,149.225 30.241,149.216 30.450 C 149.199 30.812,148.800 30.956,148.800 30.600 C 148.800 30.490,148.705 30.400,148.588 30.400 C 148.472 30.400,148.428 30.484,148.491 30.586 C 148.555 30.689,148.501 30.837,148.372 30.917 C 148.226 31.007,148.192 30.975,148.281 30.831 C 148.365 30.694,148.297 30.600,148.112 30.600 C 147.940 30.600,147.823 30.701,147.850 30.825 C 147.878 30.949,147.785 31.077,147.645 31.110 C 147.488 31.147,147.478 31.128,147.618 31.061 C 147.787 30.980,147.786 30.915,147.614 30.809 C 147.393 30.672,152.382 28.858,153.000 28.850 C 153.186 28.848,153.166 28.881,152.948 28.938 M144.600 31.400 C 144.435 31.507,144.165 31.594,144.000 31.594 C 143.733 31.594,143.733 31.572,144.000 31.400 C 144.165 31.293,144.435 31.206,144.600 31.206 C 144.867 31.206,144.867 31.228,144.600 31.400 M146.291 31.386 C 146.355 31.489,146.323 31.624,146.220 31.687 C 146.118 31.751,145.989 31.689,145.933 31.551 C 145.872 31.400,145.825 31.439,145.816 31.650 C 145.807 31.843,145.705 32.000,145.588 32.000 C 145.472 32.000,145.432 31.910,145.500 31.800 C 145.568 31.690,145.506 31.594,145.362 31.586 C 145.218 31.578,145.280 31.495,145.500 31.400 C 146.037 31.169,146.156 31.167,146.291 31.386 M144.708 32.013 C 144.916 32.350,144.667 32.461,144.059 32.301 C 143.547 32.166,143.534 32.140,143.900 31.991 C 144.453 31.766,144.557 31.769,144.708 32.013 M142.800 32.919 C 142.800 32.994,141.433 33.600,141.264 33.600 C 141.216 33.600,141.227 33.518,141.289 33.417 C 141.352 33.316,141.289 33.182,141.151 33.119 C 141.013 33.056,141.090 33.050,141.322 33.106 C 141.832 33.231,142.440 33.026,142.288 32.781 C 142.228 32.684,142.319 32.658,142.490 32.724 C 142.660 32.789,142.800 32.877,142.800 32.919 M140.866 33.603 C 141.000 33.605,140.972 33.689,140.800 33.800 C 140.419 34.046,140.142 34.055,140.289 33.817 C 140.352 33.716,140.334 33.596,140.251 33.550 C 140.168 33.503,140.220 33.496,140.366 33.533 C 140.513 33.570,140.738 33.601,140.866 33.603 M139.482 33.921 C 139.874 34.071,139.697 34.406,139.238 34.384 C 138.996 34.373,138.977 34.338,139.173 34.260 C 139.403 34.168,139.403 34.125,139.173 33.979 C 138.856 33.778,139.027 33.746,139.482 33.921 M137.367 35.225 C 136.989 35.464,136.867 35.440,136.867 35.127 C 136.867 34.957,137.011 34.893,137.250 34.955 C 137.546 35.033,137.573 35.094,137.367 35.225 M135.712 35.906 C 135.498 36.068,135.234 36.200,135.124 36.200 C 135.014 36.200,135.098 36.068,135.312 35.906 C 135.525 35.745,135.790 35.613,135.900 35.613 C 136.010 35.613,135.925 35.745,135.712 35.906 M133.000 36.182 C 132.835 36.275,132.475 36.407,132.200 36.474 C 131.783 36.576,131.800 36.548,132.300 36.307 C 132.941 35.998,133.502 35.898,133.000 36.182 M134.440 36.440 C 134.003 36.876,132.837 37.188,132.886 36.856 C 132.913 36.672,133.062 36.487,133.217 36.446 C 133.440 36.386,133.437 36.417,133.200 36.596 C 132.948 36.786,132.964 36.810,133.300 36.749 C 133.520 36.709,133.685 36.592,133.667 36.488 C 133.648 36.385,133.846 36.300,134.107 36.300 C 134.367 36.300,134.517 36.363,134.440 36.440 M130.290 37.387 C 130.052 37.622,128.200 38.421,128.200 38.289 C 128.200 38.207,130.123 37.265,130.390 37.216 C 130.440 37.207,130.394 37.284,130.290 37.387 M131.464 37.825 C 131.154 38.030,130.810 38.195,130.700 38.193 C 130.590 38.190,130.659 38.095,130.854 37.982 C 131.049 37.868,131.157 37.692,131.094 37.590 C 131.030 37.487,131.131 37.463,131.322 37.536 C 131.554 37.625,131.619 37.592,131.522 37.436 C 131.428 37.283,131.489 37.247,131.704 37.329 C 131.969 37.431,131.926 37.521,131.464 37.825 M130.339 37.886 C 130.086 38.078,130.054 38.185,130.229 38.243 C 130.395 38.298,130.361 38.372,130.130 38.461 C 129.901 38.549,129.826 38.519,129.915 38.376 C 130.006 38.229,129.894 38.199,129.575 38.285 C 129.257 38.371,129.331 38.282,129.800 38.015 C 130.613 37.552,130.856 37.494,130.339 37.886 M96.824 58.200 C 96.353 58.640,95.907 58.996,95.833 58.992 C 95.675 58.982,97.398 57.400,97.567 57.400 C 97.630 57.400,97.296 57.760,96.824 58.200 M98.291 57.785 C 98.353 57.886,98.134 58.162,97.802 58.398 C 97.471 58.634,97.200 58.729,97.200 58.609 C 97.200 58.488,97.430 58.302,97.712 58.195 C 97.994 58.088,98.168 57.911,98.100 57.800 C 98.032 57.690,98.021 57.600,98.076 57.600 C 98.131 57.600,98.228 57.683,98.291 57.785 M95.369 59.466 C 95.187 59.595,94.839 59.835,94.596 60.000 C 93.539 60.717,93.205 61.046,93.329 61.247 C 93.402 61.365,93.376 61.409,93.271 61.344 C 93.166 61.279,92.689 61.535,92.212 61.913 C 91.142 62.760,90.941 62.802,91.800 62.000 C 92.153 61.670,92.499 61.400,92.569 61.400 C 92.639 61.400,92.922 61.173,93.198 60.896 C 93.921 60.171,95.483 59.028,95.600 59.139 C 95.655 59.190,95.551 59.338,95.369 59.466 M93.900 61.530 C 93.680 61.694,93.530 61.934,93.567 62.064 C 93.603 62.194,93.569 62.235,93.490 62.157 C 93.411 62.078,93.121 62.190,92.846 62.407 C 92.571 62.623,92.246 62.800,92.123 62.799 C 92.000 62.799,92.197 62.617,92.560 62.396 C 92.951 62.158,93.162 61.901,93.079 61.766 C 93.000 61.638,93.026 61.593,93.140 61.663 C 93.252 61.732,93.513 61.622,93.721 61.420 C 93.930 61.217,94.145 61.092,94.200 61.142 C 94.255 61.192,94.120 61.367,93.900 61.530 M90.518 63.948 C 90.453 64.013,90.400 63.951,90.400 63.809 C 90.400 63.602,90.340 63.601,90.100 63.800 C 89.744 64.096,89.693 63.787,90.041 63.439 C 90.230 63.250,90.321 63.267,90.460 63.514 C 90.557 63.688,90.583 63.883,90.518 63.948 M89.395 64.306 C 88.970 64.818,87.106 66.321,87.294 66.000 C 87.391 65.835,87.702 65.505,87.985 65.268 C 89.569 63.937,89.874 63.729,89.395 64.306 M88.000 66.552 C 88.000 66.746,87.194 67.266,86.800 67.327 C 86.635 67.352,86.770 67.154,87.100 66.887 C 87.715 66.390,88.000 66.284,88.000 66.552 M86.077 67.950 C 85.985 68.242,86.023 68.234,86.307 67.900 C 86.493 67.680,86.608 67.627,86.562 67.783 C 86.516 67.938,86.168 68.287,85.789 68.557 C 85.406 68.830,85.296 68.871,85.541 68.649 C 85.784 68.429,85.933 68.199,85.871 68.138 C 85.810 68.077,85.819 67.931,85.892 67.813 C 86.095 67.484,86.200 67.561,86.077 67.950 M81.292 73.050 L 80.300 74.100 81.350 73.108 C 81.928 72.562,82.400 72.089,82.400 72.058 C 82.400 71.908,82.215 72.074,81.292 73.050 M79.610 74.590 C 79.450 74.691,79.225 74.720,79.110 74.655 C 78.994 74.589,78.969 74.612,79.053 74.704 C 79.137 74.797,78.957 75.138,78.653 75.462 C 78.242 75.900,78.203 75.998,78.500 75.843 C 78.882 75.644,80.170 74.397,79.987 74.403 C 79.939 74.405,79.769 74.489,79.610 74.590 M75.406 319.750 C 75.410 319.832,75.657 320.073,75.956 320.284 L 76.500 320.668 76.015 320.134 C 75.506 319.573,75.396 319.504,75.406 319.750 M83.800 324.637 C 83.800 327.088,84.002 327.900,84.500 327.448 C 84.590 327.367,84.608 327.399,84.539 327.520 C 84.383 327.794,86.346 329.657,86.615 329.491 C 86.722 329.425,86.786 329.444,86.757 329.535 C 86.614 329.976,89.014 332.138,89.389 331.907 C 89.508 331.833,89.549 331.900,89.486 332.066 C 89.355 332.405,90.349 333.255,90.654 333.066 C 90.768 332.996,90.803 333.034,90.730 333.151 C 90.574 333.404,91.754 334.452,92.015 334.291 C 92.114 334.230,92.150 334.298,92.094 334.444 C 91.981 334.739,93.061 335.472,93.283 335.251 C 93.359 335.175,93.370 335.246,93.307 335.411 C 93.182 335.736,94.266 336.506,94.578 336.314 C 94.675 336.254,94.742 336.361,94.727 336.552 C 94.712 336.743,94.835 336.902,95.000 336.904 C 95.165 336.906,95.330 336.996,95.367 337.104 C 95.511 337.526,95.877 337.813,96.142 337.711 C 96.296 337.653,96.370 337.686,96.308 337.786 C 96.247 337.886,96.445 338.153,96.748 338.380 C 97.052 338.606,97.480 338.963,97.700 339.173 C 98.723 340.151,104.570 344.348,108.705 347.075 C 110.352 348.161,111.925 349.199,112.200 349.383 C 112.475 349.566,113.886 350.429,115.335 351.301 C 116.784 352.173,117.918 352.971,117.854 353.074 C 117.790 353.177,117.841 353.198,117.967 353.120 C 118.093 353.042,118.715 353.277,119.348 353.641 C 119.982 354.005,120.744 354.429,121.043 354.582 C 121.342 354.735,121.545 354.927,121.495 355.008 C 121.445 355.089,121.516 355.145,121.652 355.133 C 121.788 355.121,124.330 356.307,127.300 357.769 C 133.926 361.030,134.113 361.120,135.081 361.499 C 135.510 361.667,135.811 361.856,135.749 361.917 C 135.688 361.979,135.363 361.888,135.029 361.715 C 134.336 361.357,133.918 361.305,134.100 361.600 C 134.168 361.710,134.169 361.800,134.102 361.800 C 133.901 361.800,132.800 361.198,132.800 361.088 C 132.800 361.032,132.974 361.079,133.187 361.193 C 133.400 361.307,133.692 361.396,133.837 361.392 C 133.982 361.388,133.849 361.248,133.542 361.081 C 133.234 360.915,132.784 360.827,132.542 360.887 C 132.299 360.947,132.213 360.944,132.351 360.881 C 132.668 360.736,132.476 360.400,132.076 360.400 C 131.898 360.400,131.835 360.495,131.921 360.634 C 132.020 360.794,131.955 360.825,131.716 360.734 C 131.524 360.660,131.285 360.600,131.184 360.600 C 131.083 360.600,131.000 360.518,131.000 360.419 C 131.000 360.319,131.203 360.276,131.450 360.323 C 131.854 360.399,131.859 360.390,131.507 360.236 C 131.291 360.142,130.931 360.084,130.707 360.109 C 130.483 360.133,130.174 360.019,130.021 359.854 C 129.777 359.592,129.802 359.571,130.221 359.687 C 130.637 359.802,130.652 359.789,130.338 359.593 C 130.139 359.468,129.841 359.418,129.677 359.481 C 129.513 359.544,129.429 359.515,129.489 359.417 C 129.550 359.319,128.452 358.668,127.050 357.970 C 123.958 356.430,124.113 356.497,124.286 356.777 C 124.364 356.904,124.110 356.855,123.722 356.670 C 123.335 356.485,123.072 356.245,123.139 356.136 C 123.207 356.027,123.166 355.997,123.049 356.070 C 122.759 356.249,122.174 356.005,122.321 355.766 C 122.387 355.660,122.319 355.596,122.170 355.624 C 121.856 355.683,120.000 354.823,120.000 354.618 C 120.000 354.542,119.685 354.366,119.300 354.227 C 118.915 354.088,118.600 353.908,118.600 353.827 C 118.600 353.746,118.285 353.566,117.900 353.427 C 117.515 353.288,117.200 353.090,117.200 352.987 C 117.200 352.884,117.096 352.800,116.970 352.800 C 116.581 352.800,111.601 349.729,107.473 346.944 C 102.527 343.608,102.896 343.867,99.330 341.220 C 98.797 340.824,98.273 340.525,98.165 340.555 C 98.058 340.585,98.023 340.525,98.086 340.422 C 98.210 340.223,96.815 339.265,96.535 339.356 C 96.444 339.386,96.424 339.322,96.491 339.215 C 96.597 339.043,95.922 338.526,95.567 338.507 C 95.493 338.503,95.358 338.418,95.267 338.318 C 95.168 338.211,95.223 338.199,95.400 338.290 C 95.565 338.375,95.430 338.212,95.100 337.929 C 94.770 337.646,94.409 337.411,94.298 337.407 C 94.187 337.403,93.982 337.217,93.842 336.992 C 93.702 336.768,93.500 336.638,93.393 336.704 C 93.287 336.770,93.200 336.705,93.200 336.560 C 93.200 336.315,92.490 335.734,92.330 335.849 C 92.291 335.877,92.012 335.607,91.711 335.249 C 91.405 334.886,91.061 334.657,90.932 334.732 C 90.804 334.804,90.764 334.793,90.843 334.706 C 91.033 334.495,89.565 333.201,89.304 333.349 C 89.192 333.412,89.163 333.394,89.240 333.308 C 89.318 333.223,89.268 333.051,89.130 332.926 C 87.800 331.729,87.558 331.540,87.684 331.800 C 87.764 331.965,87.686 331.920,87.511 331.700 C 86.793 330.799,85.743 329.811,85.599 329.901 C 85.514 329.953,85.204 329.680,84.909 329.294 C 84.615 328.908,84.290 328.645,84.187 328.708 C 84.084 328.772,84.000 328.697,84.000 328.543 C 84.000 328.240,83.382 327.600,83.090 327.600 C 82.991 327.600,83.111 327.740,83.355 327.911 C 83.795 328.220,83.800 328.276,83.800 333.427 L 83.800 338.631 84.378 339.165 C 84.695 339.459,85.078 339.792,85.228 339.904 C 86.456 340.826,87.987 342.061,88.400 342.464 C 88.675 342.732,89.109 343.059,89.365 343.191 C 89.787 343.408,90.015 343.590,91.017 344.509 C 91.191 344.669,91.439 344.800,91.567 344.800 C 91.695 344.800,91.800 344.890,91.800 345.000 C 91.800 345.110,91.935 345.200,92.100 345.200 C 92.265 345.200,92.400 345.273,92.400 345.363 C 92.400 345.545,94.098 346.862,94.283 346.823 C 94.348 346.809,94.683 347.067,95.026 347.395 C 95.370 347.723,95.720 347.949,95.805 347.897 C 95.889 347.845,96.010 347.937,96.073 348.101 C 96.136 348.266,96.318 348.400,96.477 348.400 C 96.636 348.400,96.797 348.483,96.833 348.584 C 96.977 348.980,104.324 353.720,109.500 356.755 C 115.113 360.047,123.608 364.266,129.600 366.738 C 130.878 367.265,131.093 367.357,132.048 367.780 C 132.569 368.011,133.088 368.200,133.200 368.200 C 133.377 368.200,134.209 368.541,135.700 369.223 C 135.920 369.324,136.370 369.490,136.700 369.593 C 137.030 369.696,137.930 370.012,138.700 370.296 C 139.470 370.580,141.225 371.175,142.600 371.618 C 143.975 372.062,145.235 372.478,145.400 372.543 C 145.565 372.608,145.790 372.671,145.900 372.683 C 146.010 372.695,146.595 372.879,147.200 373.092 C 147.805 373.305,148.390 373.486,148.500 373.494 C 148.610 373.502,149.240 373.680,149.900 373.889 C 150.560 374.099,151.171 374.253,151.258 374.232 C 151.345 374.212,151.605 374.296,151.836 374.419 C 152.066 374.543,152.535 374.683,152.878 374.731 C 153.220 374.779,153.725 374.900,154.000 375.000 C 154.275 375.100,154.905 375.281,155.400 375.403 C 155.895 375.524,156.458 375.670,156.650 375.725 C 156.971 375.819,157.000 375.602,156.997 373.063 C 156.994 370.487,156.885 369.766,156.500 369.766 C 156.415 369.766,156.269 369.886,156.175 370.033 C 156.035 370.254,156.006 370.253,156.003 370.027 C 156.001 369.852,155.855 369.791,155.600 369.858 C 155.380 369.916,155.250 369.881,155.312 369.781 C 155.373 369.682,155.283 369.600,155.112 369.600 C 154.940 369.600,154.799 369.443,154.797 369.250 C 154.794 368.970,154.759 368.956,154.617 369.179 C 154.475 369.403,154.421 369.384,154.343 369.079 C 154.261 368.758,154.243 368.753,154.223 369.045 C 154.204 369.335,154.115 369.358,153.666 369.187 C 153.372 369.075,153.007 369.031,152.855 369.090 C 152.684 369.155,152.633 369.109,152.721 368.966 C 152.817 368.810,152.725 368.773,152.431 368.850 C 152.152 368.923,152.046 368.887,152.133 368.747 C 152.217 368.611,152.143 368.579,151.933 368.660 C 151.692 368.752,151.600 368.679,151.600 368.394 C 151.600 368.177,151.505 368.000,151.388 368.000 C 151.272 368.000,151.232 368.090,151.300 368.200 C 151.368 368.310,151.328 368.400,151.212 368.400 C 151.095 368.400,150.993 368.243,150.984 368.050 C 150.975 367.841,150.928 367.801,150.868 367.950 C 150.719 368.319,150.402 368.254,150.384 367.850 C 150.375 367.641,150.328 367.601,150.268 367.750 C 150.119 368.119,149.802 368.054,149.784 367.650 C 149.775 367.441,149.728 367.401,149.668 367.550 C 149.612 367.688,149.479 367.800,149.372 367.800 C 149.264 367.800,149.229 367.715,149.294 367.610 C 149.422 367.402,148.784 366.992,148.363 367.013 C 148.218 367.020,148.323 367.114,148.595 367.223 C 148.992 367.381,149.033 367.456,148.800 367.600 C 148.620 367.711,148.461 367.698,148.378 367.564 C 148.305 367.446,148.131 367.419,147.991 367.505 C 147.831 367.605,147.788 367.581,147.875 367.441 C 147.960 367.303,147.747 367.171,147.306 367.088 C 146.918 367.015,146.600 366.869,146.600 366.764 C 146.600 366.659,146.803 366.623,147.050 366.685 C 147.297 366.746,147.387 366.744,147.249 366.681 C 147.111 366.618,147.047 366.485,147.108 366.387 C 147.173 366.283,147.360 366.285,147.559 366.393 C 147.988 366.626,152.960 368.257,153.500 368.342 C 153.720 368.377,154.260 368.548,154.700 368.723 C 155.140 368.899,155.680 369.067,155.900 369.097 C 156.120 369.128,156.451 369.216,156.636 369.292 C 156.934 369.416,156.979 369.220,157.036 367.534 C 157.071 366.491,157.039 365.675,156.965 365.721 C 156.891 365.767,156.621 365.721,156.365 365.619 C 155.438 365.247,155.097 365.137,154.963 365.164 C 154.887 365.179,154.212 364.959,153.463 364.675 C 152.713 364.390,151.965 364.129,151.800 364.094 C 151.635 364.059,151.478 364.012,151.450 363.990 C 151.422 363.968,151.310 363.928,151.200 363.900 C 151.090 363.873,150.955 363.828,150.900 363.800 C 150.845 363.773,150.733 363.733,150.650 363.712 C 149.601 363.444,146.967 362.509,146.885 362.375 C 146.825 362.279,146.624 362.199,146.438 362.199 C 146.252 362.198,145.859 362.072,145.563 361.918 C 145.268 361.764,144.752 361.577,144.416 361.503 C 144.080 361.430,143.753 361.286,143.690 361.185 C 143.628 361.083,143.357 361.000,143.088 361.000 C 142.820 361.000,142.600 360.910,142.600 360.800 C 142.600 360.690,142.464 360.600,142.297 360.600 C 142.131 360.600,141.838 360.521,141.647 360.423 C 141.456 360.326,141.075 360.158,140.800 360.050 C 140.525 359.942,140.075 359.756,139.800 359.638 C 139.191 359.375,137.449 358.639,136.900 358.414 C 136.680 358.323,135.915 357.974,135.200 357.638 C 134.485 357.302,133.225 356.714,132.400 356.331 C 131.575 355.948,130.315 355.362,129.600 355.029 C 127.313 353.964,120.865 350.420,117.355 348.300 C 116.445 347.750,115.610 347.264,115.500 347.221 C 115.390 347.177,114.940 346.895,114.500 346.594 C 114.060 346.293,112.035 344.943,110.000 343.594 C 105.136 340.371,97.441 334.642,95.302 332.650 C 95.036 332.403,94.770 332.200,94.711 332.200 C 94.652 332.200,94.345 331.930,94.030 331.600 C 93.715 331.270,93.406 331.000,93.344 331.000 C 93.282 331.000,92.975 330.753,92.662 330.450 C 92.349 330.148,91.194 329.090,90.096 328.100 C 88.998 327.111,87.133 325.361,85.950 324.212 L 83.800 322.123 83.800 324.637 M136.002 362.400 C 136.124 362.400,136.168 362.310,136.100 362.200 C 135.944 361.947,136.299 361.942,136.753 362.190 C 136.944 362.295,137.415 362.509,137.800 362.665 C 138.185 362.821,139.130 363.217,139.900 363.544 C 140.670 363.872,141.728 364.263,142.250 364.413 C 142.773 364.564,143.200 364.750,143.200 364.826 C 143.200 364.902,143.560 365.026,144.000 365.100 C 144.440 365.174,144.800 365.317,144.800 365.418 C 144.800 365.518,144.868 365.586,144.950 365.569 C 145.256 365.506,147.000 366.089,147.000 366.255 C 147.000 366.350,146.797 366.369,146.550 366.298 C 146.303 366.226,145.931 366.121,145.725 366.063 C 145.504 366.000,145.401 366.039,145.474 366.158 C 145.542 366.268,145.459 366.411,145.288 366.477 C 145.118 366.542,145.028 366.517,145.087 366.420 C 145.147 366.324,145.007 366.196,144.778 366.136 C 144.546 366.076,144.419 365.931,144.493 365.812 C 144.566 365.694,144.462 365.545,144.263 365.482 C 144.063 365.419,143.343 365.142,142.662 364.866 C 141.981 364.591,141.261 364.416,141.062 364.478 C 140.863 364.540,140.565 364.497,140.400 364.382 C 140.170 364.222,140.210 364.205,140.575 364.308 C 140.919 364.406,141.009 364.376,140.901 364.201 C 140.810 364.055,140.506 364.002,140.126 364.066 C 139.782 364.125,139.613 364.126,139.751 364.069 C 140.123 363.916,139.843 363.600,139.338 363.603 C 138.974 363.606,138.951 363.642,139.200 363.818 C 139.467 364.007,139.467 364.021,139.200 363.949 C 139.035 363.904,138.900 363.757,138.900 363.623 C 138.900 363.304,136.601 362.373,136.161 362.513 C 135.845 362.613,134.600 362.116,134.600 361.890 C 134.600 361.835,134.866 361.927,135.190 362.095 C 135.515 362.263,135.880 362.400,136.002 362.400 M138.148 363.383 C 138.342 363.496,138.444 363.591,138.375 363.594 C 138.174 363.604,136.400 362.790,136.400 362.688 C 136.400 362.585,137.592 363.059,138.148 363.383 M144.086 365.777 C 144.132 365.852,144.004 365.914,143.800 365.914 C 143.596 365.914,143.473 365.844,143.526 365.757 C 143.580 365.671,143.489 365.600,143.324 365.600 C 143.159 365.600,142.970 365.514,142.905 365.408 C 142.835 365.294,143.034 365.302,143.394 365.428 C 143.727 365.544,144.039 365.701,144.086 365.777 M261.920 367.712 C 261.160 367.977,260.491 368.243,260.432 368.302 C 260.311 368.422,260.941 368.321,261.400 368.146 C 261.565 368.083,262.173 367.882,262.750 367.699 C 263.755 367.382,264.083 367.183,263.550 367.215 C 263.413 367.223,262.679 367.447,261.920 367.712 M258.500 368.754 C 257.632 369.060,255.975 369.545,255.240 369.709 C 254.987 369.765,254.402 369.936,253.940 370.088 C 252.869 370.441,245.693 372.213,243.334 372.707 C 242.669 372.846,242.169 373.035,242.250 373.117 C 242.399 373.266,249.807 371.518,254.700 370.180 C 255.470 369.970,256.316 369.749,256.581 369.689 C 256.845 369.630,257.222 369.495,257.418 369.390 C 257.614 369.286,257.937 369.196,258.137 369.191 C 258.660 369.178,259.721 368.695,259.493 368.574 C 259.387 368.518,258.940 368.598,258.500 368.754 M238.900 373.605 C 238.633 373.723,238.799 373.743,239.400 373.663 C 239.895 373.598,240.338 373.512,240.383 373.472 C 240.557 373.322,239.282 373.436,238.900 373.605 " stroke="none" fill="#00a5ee" fill-rule="evenodd"></path><path id="path4" d="M96.576 58.192 C 96.094 58.627,95.760 58.987,95.833 58.992 C 95.907 58.996,96.353 58.640,96.824 58.200 C 97.296 57.760,97.630 57.400,97.567 57.400 C 97.503 57.400,97.057 57.756,96.576 58.192 M98.100 57.800 C 98.168 57.911,97.994 58.088,97.712 58.195 C 97.430 58.302,97.200 58.488,97.200 58.609 C 97.200 58.729,97.471 58.634,97.802 58.398 C 98.305 58.040,98.457 57.600,98.076 57.600 C 98.021 57.600,98.032 57.690,98.100 57.800 M94.600 59.719 C 94.105 60.089,93.474 60.619,93.198 60.896 C 92.922 61.173,92.639 61.400,92.569 61.400 C 92.499 61.400,92.153 61.670,91.800 62.000 C 90.941 62.802,91.142 62.760,92.212 61.913 C 92.689 61.535,93.166 61.279,93.271 61.344 C 93.376 61.409,93.402 61.365,93.329 61.247 C 93.205 61.046,93.539 60.717,94.596 60.000 C 95.557 59.349,95.696 59.229,95.600 59.139 C 95.545 59.087,95.095 59.348,94.600 59.719 M93.721 61.420 C 93.513 61.622,93.252 61.732,93.140 61.663 C 93.026 61.593,93.000 61.638,93.079 61.766 C 93.162 61.901,92.951 62.158,92.560 62.396 C 92.197 62.617,92.000 62.799,92.123 62.799 C 92.246 62.800,92.571 62.623,92.846 62.407 C 93.121 62.190,93.411 62.078,93.490 62.157 C 93.569 62.235,93.603 62.194,93.567 62.064 C 93.530 61.934,93.680 61.694,93.900 61.530 C 94.120 61.367,94.255 61.192,94.200 61.142 C 94.145 61.092,93.930 61.217,93.721 61.420 M83.529 61.450 C 83.434 61.642,83.237 61.800,83.090 61.800 C 82.943 61.800,82.705 61.962,82.561 62.160 C 82.418 62.358,82.099 62.658,81.853 62.827 C 81.423 63.122,79.580 64.756,76.808 67.300 C 71.410 72.253,63.688 80.462,59.500 85.700 C 59.060 86.250,58.646 86.745,58.580 86.800 C 57.903 87.364,51.049 96.746,48.498 100.600 C 8.040 161.719,8.119 238.539,48.702 299.700 C 52.377 305.239,58.026 312.740,61.503 316.700 C 61.793 317.030,62.451 317.792,62.965 318.394 C 67.860 324.122,74.926 331.186,80.776 336.200 C 81.533 336.848,82.227 337.458,83.424 338.523 L 83.900 338.946 83.846 333.623 C 83.794 328.502,83.776 328.287,83.374 327.950 C 83.144 327.757,83.042 327.600,83.147 327.600 C 83.410 327.600,84.000 328.276,84.000 328.578 C 84.000 328.713,84.081 328.773,84.181 328.712 C 84.280 328.651,84.618 328.897,84.931 329.259 C 85.244 329.621,85.416 329.779,85.312 329.609 C 84.770 328.715,81.717 325.844,81.421 325.949 C 81.245 326.012,81.164 325.993,81.243 325.906 C 81.457 325.669,78.208 322.200,77.772 322.200 C 77.567 322.200,77.389 322.110,77.375 322.000 C 77.361 321.890,77.339 321.715,77.325 321.612 C 77.295 321.384,75.764 320.000,75.541 320.000 C 75.454 320.000,75.409 319.845,75.441 319.654 C 75.474 319.464,75.395 319.307,75.267 319.304 C 74.974 319.299,74.700 319.033,74.700 318.755 C 74.700 318.639,74.522 318.444,74.305 318.322 C 73.823 318.052,73.406 317.551,73.516 317.375 C 73.560 317.304,73.460 317.132,73.293 316.994 C 73.038 316.783,73.010 316.803,73.114 317.122 C 73.212 317.422,73.195 317.440,73.032 317.210 C 72.919 317.050,72.868 316.851,72.920 316.768 C 72.971 316.685,72.786 316.469,72.508 316.287 C 72.231 316.105,72.047 315.886,72.100 315.801 C 72.152 315.715,72.060 315.532,71.893 315.394 C 71.647 315.190,71.603 315.195,71.656 315.422 C 71.692 315.575,71.631 315.498,71.522 315.250 C 71.412 315.002,71.250 314.800,71.161 314.800 C 71.073 314.800,71.000 314.672,71.000 314.515 C 71.000 314.357,70.753 314.034,70.450 313.796 C 70.148 313.558,69.900 313.291,69.900 313.202 C 69.900 313.112,69.630 312.738,69.299 312.370 C 68.969 312.001,68.206 311.070,67.604 310.300 C 67.002 309.530,66.462 308.855,66.404 308.800 C 66.276 308.679,62.224 303.283,61.800 302.669 C 61.635 302.430,61.193 301.799,60.818 301.267 C 59.991 300.094,56.934 295.520,55.962 294.000 C 52.083 287.942,47.466 279.341,44.175 272.047 C 43.394 270.316,42.642 268.765,42.503 268.600 C 40.805 266.579,34.783 248.021,32.996 239.300 C 25.933 204.831,27.220 177.733,37.533 143.800 C 39.461 137.458,44.610 124.360,45.396 123.800 C 45.474 123.745,46.121 122.485,46.834 121.000 C 50.541 113.288,57.164 102.121,61.600 96.105 C 63.629 93.353,66.518 89.482,66.605 89.400 C 66.662 89.345,67.202 88.670,67.804 87.900 C 69.175 86.146,70.042 85.175,70.145 85.278 C 70.189 85.322,70.016 85.570,69.762 85.830 C 69.508 86.090,69.030 86.650,68.700 87.074 C 68.370 87.498,67.932 88.037,67.726 88.273 C 65.767 90.513,59.841 98.852,57.000 103.366 C 56.285 104.502,55.358 105.968,54.939 106.624 C 48.571 116.606,40.330 135.021,36.826 147.100 C 32.137 163.265,29.267 179.370,29.057 190.700 C 28.632 213.540,32.557 239.868,38.899 256.717 C 39.183 257.470,39.457 258.428,39.510 258.846 C 40.007 262.799,49.884 283.607,55.153 291.800 C 55.542 292.405,56.057 293.215,56.296 293.600 C 56.930 294.620,61.744 301.796,62.260 302.492 C 65.451 306.792,66.521 308.201,67.879 309.900 C 68.759 311.000,69.686 312.098,69.939 312.340 C 70.193 312.583,70.400 312.836,70.400 312.903 C 70.400 312.998,72.883 315.901,73.989 317.100 C 74.090 317.210,74.781 317.975,75.523 318.800 C 77.455 320.947,85.260 328.800,85.461 328.800 C 85.555 328.800,85.354 328.567,85.015 328.282 C 84.673 327.994,84.458 327.661,84.532 327.532 C 84.604 327.404,84.590 327.367,84.500 327.448 C 84.002 327.900,83.800 327.088,83.800 324.629 L 83.800 322.107 85.950 324.201 C 87.133 325.353,86.248 324.407,83.984 322.098 C 81.720 319.789,79.380 317.370,78.784 316.721 C 78.188 316.073,77.317 315.143,76.850 314.655 C 76.383 314.168,75.999 313.708,75.997 313.634 C 75.995 313.560,75.500 312.968,74.897 312.318 C 74.294 311.668,73.800 311.093,73.800 311.041 C 73.800 310.989,73.575 310.737,73.300 310.482 C 73.025 310.228,72.800 309.945,72.800 309.854 C 72.800 309.763,72.642 309.547,72.450 309.373 C 72.258 309.200,71.920 308.803,71.700 308.493 C 71.480 308.182,71.097 307.723,70.850 307.473 C 70.602 307.223,70.400 306.935,70.400 306.834 C 70.400 306.732,70.274 306.545,70.121 306.417 C 69.840 306.184,66.311 301.448,64.990 299.531 C 63.562 297.458,61.427 294.270,60.685 293.100 C 59.689 291.530,57.400 287.745,57.400 287.667 C 57.400 287.633,57.136 287.177,56.814 286.653 C 51.207 277.529,44.385 261.379,40.699 248.500 C 32.516 219.904,31.971 186.186,39.224 157.100 C 42.904 142.341,49.205 126.554,56.367 114.150 C 56.605 113.738,56.966 113.108,57.169 112.750 C 59.508 108.630,63.841 102.046,67.204 97.499 C 68.587 95.629,69.780 93.942,69.853 93.749 C 69.927 93.557,70.068 93.400,70.167 93.400 C 70.266 93.400,70.575 93.063,70.854 92.650 C 71.133 92.238,71.727 91.495,72.175 91.000 C 72.622 90.505,72.991 90.028,72.994 89.940 C 72.997 89.853,73.225 89.572,73.500 89.318 C 73.775 89.063,74.000 88.804,74.000 88.742 C 74.000 88.681,74.248 88.372,74.550 88.055 C 75.028 87.554,76.095 86.351,77.763 84.432 C 78.707 83.346,80.533 81.419,83.377 78.504 C 84.984 76.857,85.738 76.044,85.050 76.698 L 83.800 77.887 83.800 74.313 C 83.800 70.751,83.799 70.739,83.400 71.100 C 83.180 71.299,83.000 71.394,83.000 71.310 C 83.000 71.107,84.044 69.872,84.108 70.000 C 84.190 70.164,85.001 69.357,84.993 69.119 C 84.990 68.999,84.829 69.080,84.636 69.300 C 84.273 69.715,83.802 69.911,83.797 69.650 C 83.795 69.568,84.537 68.791,85.447 67.925 C 86.356 67.059,86.993 66.384,86.862 66.425 C 86.730 66.466,86.027 67.071,85.298 67.770 C 84.139 68.879,83.284 69.362,83.996 68.505 C 84.163 68.303,84.174 68.200,84.029 68.200 C 83.880 68.200,83.792 67.064,83.755 64.650 C 83.722 62.501,83.632 61.238,83.529 61.450 M90.041 63.439 C 89.693 63.787,89.744 64.096,90.100 63.800 C 90.340 63.601,90.400 63.602,90.400 63.809 C 90.400 63.951,90.453 64.013,90.518 63.948 C 90.583 63.883,90.557 63.688,90.460 63.514 C 90.321 63.267,90.230 63.250,90.041 63.439 M89.000 64.424 C 87.743 65.457,87.459 65.720,87.294 66.000 C 87.106 66.321,88.970 64.818,89.395 64.306 C 89.741 63.890,89.599 63.932,89.000 64.424 M87.100 66.887 C 86.770 67.154,86.635 67.352,86.800 67.327 C 87.194 67.266,88.000 66.746,88.000 66.552 C 88.000 66.284,87.715 66.390,87.100 66.887 M85.892 67.813 C 85.819 67.931,85.810 68.077,85.871 68.138 C 85.933 68.199,85.784 68.429,85.541 68.649 C 85.296 68.871,85.406 68.830,85.789 68.557 C 86.168 68.287,86.516 67.938,86.562 67.783 C 86.608 67.627,86.493 67.680,86.307 67.900 C 86.023 68.234,85.985 68.242,86.077 67.950 C 86.200 67.561,86.095 67.484,85.892 67.813 M91.000 71.000 C 90.746 71.220,90.629 71.400,90.738 71.400 C 90.848 71.400,91.101 71.220,91.300 71.000 C 91.499 70.780,91.617 70.600,91.562 70.600 C 91.506 70.600,91.254 70.780,91.000 71.000 M82.400 72.058 C 82.400 72.089,81.928 72.562,81.350 73.108 L 80.300 74.100 81.292 73.050 C 82.215 72.074,82.400 71.908,82.400 72.058 M89.058 72.805 C 88.595 73.242,88.284 73.600,88.367 73.600 C 88.451 73.600,88.870 73.240,89.300 72.800 C 90.305 71.771,90.150 71.774,89.058 72.805 M79.487 75.017 C 79.164 75.357,78.720 75.728,78.500 75.843 C 78.203 75.998,78.242 75.900,78.653 75.462 C 78.957 75.138,79.137 74.797,79.053 74.704 C 78.969 74.612,78.994 74.589,79.110 74.655 C 79.225 74.720,79.450 74.691,79.610 74.590 C 80.123 74.265,80.089 74.386,79.487 75.017 M77.995 76.506 C 77.450 77.163,76.139 78.406,76.067 78.334 C 76.025 78.292,76.466 77.795,77.046 77.230 C 78.082 76.218,78.494 75.904,77.995 76.506 M75.573 79.150 C 75.100 79.870,74.039 80.627,73.884 80.356 C 73.802 80.215,73.806 80.164,73.893 80.241 C 73.979 80.319,74.421 80.028,74.875 79.594 C 75.796 78.712,75.908 78.642,75.573 79.150 M73.207 81.750 C 72.742 82.273,72.095 83.015,71.769 83.400 C 70.712 84.648,70.333 84.982,70.125 84.853 C 70.001 84.777,70.035 84.692,70.210 84.638 C 70.504 84.549,71.252 83.775,72.058 82.725 C 72.533 82.107,73.829 80.800,73.967 80.800 C 74.013 80.800,73.671 81.228,73.207 81.750 M38.396 139.503 C 38.485 139.448,38.259 140.325,37.895 141.451 C 29.251 168.186,26.626 191.414,29.316 217.360 C 29.491 219.050,29.595 220.472,29.546 220.520 C 29.498 220.569,29.308 219.324,29.124 217.754 C 26.544 195.758,27.802 177.371,33.430 154.800 C 34.743 149.532,38.003 138.908,38.160 139.380 C 38.201 139.502,38.307 139.558,38.396 139.503 M86.631 329.933 C 87.146 330.481,87.418 330.572,86.931 330.034 C 86.748 329.832,86.644 329.622,86.700 329.567 C 86.755 329.512,86.663 329.467,86.496 329.467 C 86.264 329.467,86.295 329.575,86.631 329.933 M86.997 331.101 C 87.793 332.061,87.861 332.123,87.643 331.698 C 87.530 331.477,87.226 331.117,86.969 330.899 C 86.517 330.517,86.518 330.524,86.997 331.101 M88.400 331.432 C 88.400 331.483,88.651 331.765,88.957 332.059 C 89.452 332.533,89.514 332.550,89.514 332.211 C 89.514 332.001,89.438 331.877,89.345 331.934 C 89.251 331.992,89.000 331.881,88.787 331.689 C 88.574 331.496,88.400 331.380,88.400 331.432 M91.617 335.124 C 91.883 335.467,92.140 335.711,92.189 335.668 C 92.239 335.624,92.021 335.343,91.707 335.044 L 91.134 334.500 91.617 335.124 M95.122 336.964 C 95.057 337.069,95.131 337.260,95.286 337.389 C 95.508 337.573,95.558 337.558,95.523 337.317 C 95.462 336.904,95.266 336.731,95.122 336.964 M103.527 344.205 C 103.842 344.526,104.196 344.791,104.312 344.794 C 104.429 344.798,104.701 344.965,104.917 345.166 C 105.451 345.663,110.146 348.800,110.356 348.800 C 110.449 348.800,110.699 348.962,110.912 349.160 C 111.126 349.358,111.615 349.696,112.000 349.910 C 112.385 350.125,112.745 350.347,112.800 350.404 C 112.887 350.494,114.776 351.600,116.939 352.825 C 117.302 353.031,117.938 353.393,118.350 353.628 C 118.763 353.864,119.505 354.282,120.000 354.558 C 120.495 354.833,121.078 355.180,121.295 355.329 C 121.511 355.478,121.849 355.600,122.045 355.600 C 122.240 355.600,122.400 355.680,122.400 355.779 C 122.400 355.877,122.535 356.009,122.700 356.072 C 123.320 356.310,122.970 355.848,122.253 355.481 C 121.842 355.272,121.100 354.863,120.603 354.573 C 120.106 354.283,119.295 353.831,118.800 353.570 C 116.806 352.515,113.632 350.509,113.724 350.362 C 113.777 350.275,113.666 350.264,113.478 350.336 C 113.226 350.433,113.178 350.397,113.298 350.203 C 113.396 350.045,113.384 349.986,113.268 350.058 C 113.019 350.212,111.950 349.516,112.142 349.324 C 112.222 349.244,112.118 349.244,111.911 349.323 C 111.645 349.425,111.578 349.398,111.682 349.229 C 111.763 349.098,111.756 349.003,111.665 349.019 C 111.239 349.093,110.990 348.979,111.119 348.769 C 111.198 348.642,111.175 348.592,111.068 348.658 C 110.844 348.797,109.740 348.126,109.912 347.955 C 109.975 347.892,109.863 347.853,109.663 347.870 C 109.457 347.887,109.324 347.785,109.355 347.635 C 109.385 347.489,109.318 347.427,109.205 347.497 C 109.010 347.617,108.150 347.153,108.251 346.982 C 108.278 346.937,108.266 346.919,108.224 346.943 C 108.050 347.041,107.397 346.567,107.492 346.413 C 107.549 346.320,107.439 346.258,107.248 346.273 C 107.057 346.288,106.919 346.198,106.942 346.074 C 106.965 345.949,106.830 345.859,106.642 345.874 C 106.454 345.888,106.325 345.781,106.355 345.635 C 106.385 345.489,106.335 345.417,106.242 345.474 C 105.998 345.625,104.969 344.900,105.148 344.703 C 105.232 344.611,105.201 344.592,105.079 344.662 C 104.958 344.731,104.688 344.648,104.479 344.479 C 104.271 344.309,104.235 344.236,104.400 344.317 C 104.576 344.404,104.631 344.389,104.533 344.282 C 104.442 344.182,104.284 344.089,104.183 344.075 C 104.083 344.061,103.905 344.039,103.788 344.025 C 103.672 344.011,103.620 343.929,103.674 343.842 C 103.728 343.754,103.588 343.669,103.364 343.652 C 102.995 343.625,103.012 343.679,103.527 344.205 M123.201 356.143 C 123.202 356.229,123.486 356.462,123.833 356.659 C 124.355 356.956,124.418 356.963,124.198 356.698 C 123.871 356.303,123.200 355.930,123.201 356.143 M237.700 373.800 C 237.103 373.952,237.104 373.953,237.850 373.976 C 238.263 373.989,238.600 373.910,238.600 373.800 C 238.600 373.580,238.566 373.580,237.700 373.800 M235.200 374.200 C 234.669 374.312,234.621 374.351,235.000 374.362 C 235.275 374.370,235.860 374.302,236.300 374.211 C 236.967 374.074,237.000 374.047,236.500 374.049 C 236.170 374.051,235.585 374.119,235.200 374.200 M232.250 374.738 C 232.443 374.788,232.757 374.788,232.950 374.738 C 233.143 374.688,232.985 374.646,232.600 374.646 C 232.215 374.646,232.058 374.688,232.250 374.738 M230.850 374.938 C 231.043 374.988,231.357 374.988,231.550 374.938 C 231.743 374.888,231.585 374.846,231.200 374.846 C 230.815 374.846,230.657 374.888,230.850 374.938 M229.450 375.138 C 229.643 375.188,229.957 375.188,230.150 375.138 C 230.343 375.088,230.185 375.046,229.800 375.046 C 229.415 375.046,229.257 375.088,229.450 375.138 M227.850 375.338 C 228.043 375.388,228.357 375.388,228.550 375.338 C 228.743 375.288,228.585 375.246,228.200 375.246 C 227.815 375.246,227.657 375.288,227.850 375.338 M226.152 375.541 C 226.401 375.589,226.761 375.587,226.952 375.537 C 227.144 375.487,226.940 375.448,226.500 375.450 C 226.060 375.453,225.904 375.494,226.152 375.541 M224.352 375.741 C 224.601 375.789,224.961 375.787,225.152 375.737 C 225.344 375.687,225.140 375.648,224.700 375.650 C 224.260 375.653,224.104 375.694,224.352 375.741 " stroke="none" fill="#00adf1" fill-rule="evenodd"></path></g></svg>